<?xml version="1.0" standalone="no"?><!DOCTYPE svg PUBLIC "-//W3C//DTD SVG 1.1//EN" "http://www.w3.org/Graphics/SVG/1.1/DTD/svg11.dtd"><svg t="1529045638974" class="icon" style="" viewBox="0 0 1024 1024" version="1.1" xmlns="http://www.w3.org/2000/svg" p-id="1962" xmlns:xlink="http://www.w3.org/1999/xlink" width="48" height="48"><defs><style type="text/css"></style></defs><path d="M512 805.12c21.5808 0 39.64928 18.06848 39.64928 39.64928 0 21.58592-18.06848 39.14752-39.64928 39.14752s-39.15264-17.56672-39.15264-39.14752C472.84736 823.18848 490.4192 805.12 512 805.12L512 805.12zM229.66272 162.40128 229.66272 162.40128c21.8368 0 39.64928 17.8176 39.64928 39.15264 0 21.83168-17.81248 39.2704-39.64928 39.2704-21.5808 0-38.90176-17.43872-38.90176-39.2704C190.76608 180.224 208.08704 162.40128 229.66272 162.40128L229.66272 162.40128zM792.82176 162.40128 792.82176 162.40128c21.32992 0 38.90176 17.8176 38.90176 39.15264 0 21.83168-17.57184 39.2704-38.90176 39.2704-21.82656 0-39.64928-17.43872-39.64928-39.2704C753.17248 180.224 770.9952 162.40128 792.82176 162.40128L792.82176 162.40128zM512 742.62528 512 742.62528c60.73344-48.93184 109.92128-111.67232 147.072-180.68992 40.15104-74.53696 65.75104-157.85984 75.78624-241.42848-7.5264-7.27552-14.3104-13.9264-21.5808-22.33856l-0.256 0c-6.53312-7.3984-13.30688-15.04768-19.56864-22.58432L331.0592 275.33312c-6.02112 8.16128-12.8 15.68256-20.07552 22.83008-7.28064 8.41216-14.56128 15.06304-21.59616 22.33856 10.30144 83.56864 36.14208 166.38976 76.288 241.18272C402.32448 630.95296 452.01408 693.1968 512 742.62528L512 742.62528zM700.47744 584.2688 700.47744 584.2688c-43.17184 79.55968-100.88448 151.08608-173.6704 206.54592l-0.512 0.50688c-8.02304 6.272-20.07552 6.272-28.10368 0-73.02656-55.72096-131.50208-127.24224-174.40768-207.54944-44.67712-82.82112-72.27904-175.67744-82.56512-269.40928-1.2544-7.7824 1.75616-16.19456 8.03328-21.71392 9.77408-8.40192 18.56-17.06496 27.34592-25.59488l0 0c8.28416-9.54368 15.81568-18.69312 23.34208-28.98944 4.52096-5.51936 11.54048-9.78944 19.08224-9.78944l386.23232 0c6.77888 0 14.04928 3.13344 18.31424 9.28256 7.7824 10.28608 16.31232 19.94752 24.0896 29.4912l0.24576 0c8.03328 8.52992 17.58208 17.18784 27.11552 25.59488l-0.26112 0c5.77536 4.76672 9.04704 12.30336 8.28928 20.5824C773.248 408.09472 745.40032 500.94592 700.47744 584.2688L700.47744 584.2688zM512 939.136 512 939.136c258.48832-133.01248 406.06208-418.10944 406.06208-703.58016L918.06208 210.8416c-60.23168-18.94912-106.40384-69.14048-119.71072-130.37568L226.40128 80.46592c-13.79328 60.98432-59.97056 111.42656-119.9616 130.37568l-0.24576 24.71424C106.19392 521.02656 254.26432 806.12352 512 939.136L512 939.136zM529.82272 1017.93792 529.82272 1017.93792c-10.5472 5.51424-23.3472 6.02624-34.64192 0.50176C200.56064 876.89728 27.648 556.672 27.648 235.55584c0-7.27552 0.24576-16.4352 0.99328-29.23008 0-10.29632 0.512-19.45088 1.2544-28.3648 0-18.944 15.0528-35.38432 34.3808-37.39136 49.43872-6.02112 87.58784-48.4352 87.8336-98.5088L152.11008 41.18528c0-21.4528 18.06848-39.5264 39.15264-39.5264l640.45056 0 1.00352 0c21.84192 0 39.6544 18.06848 39.6544 39.5264 0 49.8176 37.39648 93.1072 87.82848 99.38432 18.58048 2.00704 33.6384 16.81408 34.39104 36.26496 0.512 8.9088 0.99328 18.32448 0.99328 29.4912 0.75264 12.8 0.75264 21.95968 0.75264 29.23008C996.352 556.16512 823.94624 876.39552 529.82272 1017.93792L529.82272 1017.93792z" p-id="1963" fill="#90a3b4"></path></svg>